<svg width="42" height="42" viewBox="0 0 42 42" fill="none" xmlns="http://www.w3.org/2000/svg">
<g opacity="0.8">
<mask id="mask0_8_125" style="mask-type:alpha" maskUnits="userSpaceOnUse" x="-5" y="-5" width="52" height="52">
<rect x="-4.20002" y="-4.19999" width="50.4" height="50.4" fill="#D9D9D9"/>
</mask>
<g mask="url(#mask0_8_125)">
<path d="M8.085 31.71C9.87 30.345 11.865 29.2687 14.07 28.4812C16.275 27.6937 18.585 27.3 21 27.3C23.415 27.3 25.725 27.6937 27.93 28.4812C30.135 29.2687 32.13 30.345 33.915 31.71C35.14 30.275 36.0937 28.6475 36.7762 26.8275C37.4587 25.0075 37.8 23.065 37.8 21C37.8 16.345 36.1637 12.3812 32.8912 9.10875C29.6187 5.83625 25.655 4.2 21 4.2C16.345 4.2 12.3812 5.83625 9.10875 9.10875C5.83625 12.3812 4.2 16.345 4.2 21C4.2 23.065 4.54125 25.0075 5.22375 26.8275C5.90625 28.6475 6.86 30.275 8.085 31.71ZM21 23.1C18.935 23.1 17.1937 22.3912 15.7762 20.9737C14.3587 19.5562 13.65 17.815 13.65 15.75C13.65 13.685 14.3587 11.9437 15.7762 10.5262C17.1937 9.10875 18.935 8.4 21 8.4C23.065 8.4 24.8062 9.10875 26.2237 10.5262C27.6412 11.9437 28.35 13.685 28.35 15.75C28.35 17.815 27.6412 19.5562 26.2237 20.9737C24.8062 22.3912 23.065 23.1 21 23.1ZM21 42C18.095 42 15.365 41.4487 12.81 40.3462C10.255 39.2437 8.0325 37.7475 6.1425 35.8575C4.2525 33.9675 2.75625 31.745 1.65375 29.19C0.55125 26.635 0 23.905 0 21C0 18.095 0.55125 15.365 1.65375 12.81C2.75625 10.255 4.2525 8.0325 6.1425 6.1425C8.0325 4.2525 10.255 2.75625 12.81 1.65375C15.365 0.55125 18.095 0 21 0C23.905 0 26.635 0.55125 29.19 1.65375C31.745 2.75625 33.9675 4.2525 35.8575 6.1425C37.7475 8.0325 39.2437 10.255 40.3462 12.81C41.4487 15.365 42 18.095 42 21C42 23.905 41.4487 26.635 40.3462 29.19C39.2437 31.745 37.7475 33.9675 35.8575 35.8575C33.9675 37.7475 31.745 39.2437 29.19 40.3462C26.635 41.4487 23.905 42 21 42ZM21 37.8C22.855 37.8 24.605 37.5287 26.25 36.9862C27.895 36.4437 29.4 35.665 30.765 34.65C29.4 33.635 27.895 32.8562 26.25 32.3137C24.605 31.7712 22.855 31.5 21 31.5C19.145 31.5 17.395 31.7712 15.75 32.3137C14.105 32.8562 12.6 33.635 11.235 34.65C12.6 35.665 14.105 36.4437 15.75 36.9862C17.395 37.5287 19.145 37.8 21 37.8ZM21 18.9C21.91 18.9 22.6625 18.6025 23.2575 18.0075C23.8525 17.4125 24.15 16.66 24.15 15.75C24.15 14.84 23.8525 14.0875 23.2575 13.4925C22.6625 12.8975 21.91 12.6 21 12.6C20.09 12.6 19.3375 12.8975 18.7425 13.4925C18.1475 14.0875 17.85 14.84 17.85 15.75C17.85 16.66 18.1475 17.4125 18.7425 18.0075C19.3375 18.6025 20.09 18.9 21 18.9Z" fill="white"/>
</g>
</g>
</svg>
